<?xml version='1.0' encoding='utf-8'?>
<svg xmlns="http://www.w3.org/2000/svg" xmlns:xlink="http://www.w3.org/1999/xlink" width="1200" height="1960" viewBox="0 0 1200 1960">
  <defs><path id="formula1_slot_content__g2-61" d="M8.069738-3.873474C8.237111-3.873474 8.452304-3.873474 8.452304-4.088667C8.452304-4.315816 8.249066-4.315816 8.069738-4.315816H1.028144C.860772-4.315816 .645579-4.315816 .645579-4.100623C.645579-3.873474 .848817-3.873474 1.028144-3.873474H8.069738ZM8.069738-1.649813C8.237111-1.649813 8.452304-1.649813 8.452304-1.865006C8.452304-2.092154 8.249066-2.092154 8.069738-2.092154H1.028144C.860772-2.092154 .645579-2.092154 .645579-1.876961C.645579-1.649813 .848817-1.649813 1.028144-1.649813H8.069738Z" /><path id="formula1_slot_content__g0-69" d="M8.308842-2.773599C8.320797-2.809465 8.356663-2.893151 8.356663-2.940971C8.356663-3.000747 8.308842-3.060523 8.237111-3.060523C8.18929-3.060523 8.16538-3.048568 8.129514-3.012702C8.105604-3.000747 8.105604-2.976837 7.998007-2.737733C7.292653-1.06401 6.77858-.3467 4.865753-.3467H3.120299C2.952927-.3467 2.929016-.3467 2.857285-.358655C2.725778-.37061 2.713823-.394521 2.713823-.490162C2.713823-.573848 2.737733-.645579 2.761644-.753176L3.58655-4.052802H4.770112C5.702615-4.052802 5.774346-3.849564 5.774346-3.490909C5.774346-3.371357 5.774346-3.263761 5.69066-2.905106C5.66675-2.857285 5.654795-2.809465 5.654795-2.773599C5.654795-2.689913 5.71457-2.654047 5.786301-2.654047C5.893898-2.654047 5.905853-2.737733 5.953674-2.905106L6.635118-5.678705C6.635118-5.738481 6.587298-5.798257 6.515567-5.798257C6.40797-5.798257 6.396015-5.750436 6.348194-5.583064C6.109091-4.662516 5.869988-4.399502 4.805978-4.399502H3.670237L4.411457-7.340473C4.519054-7.758904 4.542964-7.79477 5.033126-7.79477H6.742715C8.2132-7.79477 8.51208-7.400249 8.51208-6.491656C8.51208-6.479701 8.51208-6.144956 8.464259-5.750436C8.452304-5.702615 8.440349-5.630884 8.440349-5.606974C8.440349-5.511333 8.500125-5.475467 8.571856-5.475467C8.655542-5.475467 8.703362-5.523288 8.727273-5.738481L8.978331-7.830635C8.978331-7.866501 9.002242-7.986052 9.002242-8.009963C9.002242-8.141469 8.894645-8.141469 8.679452-8.141469H2.84533C2.618182-8.141469 2.49863-8.141469 2.49863-7.926276C2.49863-7.79477 2.582316-7.79477 2.785554-7.79477C3.526775-7.79477 3.526775-7.711083 3.526775-7.579577C3.526775-7.519801 3.514819-7.47198 3.478954-7.340473L1.865006-.884682C1.75741-.466252 1.733499-.3467 .896638-.3467C.669489-.3467 .549938-.3467 .549938-.131507C.549938 0 .621669 0 .860772 0H6.862267C7.12528 0 7.137235-.011955 7.220922-.203238L8.308842-2.773599Z" /><path id="formula1_slot_content__g0-99" d="M4.674471-4.495143C4.447323-4.495143 4.339726-4.495143 4.172354-4.351681C4.100623-4.291905 3.969116-4.112578 3.969116-3.921295C3.969116-3.682192 4.148443-3.53873 4.375592-3.53873C4.662516-3.53873 4.985305-3.777833 4.985305-4.25604C4.985305-4.829888 4.435367-5.272229 3.610461-5.272229C2.044334-5.272229 .478207-3.56264 .478207-1.865006C.478207-.824907 1.123786 .119552 2.343213 .119552C3.969116 .119552 4.99726-1.147696 4.99726-1.303113C4.99726-1.374844 4.925529-1.43462 4.877709-1.43462C4.841843-1.43462 4.829888-1.422665 4.722291-1.315068C3.957161-.298879 2.82142-.119552 2.367123-.119552C1.542217-.119552 1.279203-.836862 1.279203-1.43462C1.279203-1.853051 1.482441-3.012702 1.912827-3.825654C2.223661-4.387547 2.86924-5.033126 3.622416-5.033126C3.777833-5.033126 4.435367-5.009215 4.674471-4.495143Z" /><path id="formula1_slot_content__g0-109" d="M2.462765-3.502864C2.486675-3.574595 2.785554-4.172354 3.227895-4.554919C3.53873-4.841843 3.945205-5.033126 4.411457-5.033126C4.889664-5.033126 5.057036-4.674471 5.057036-4.196264C5.057036-4.124533 5.057036-3.88543 4.913574-3.323537L4.614695-2.092154C4.519054-1.733499 4.291905-.848817 4.267995-.71731C4.220174-.537983 4.148443-.227148 4.148443-.179328C4.148443-.011955 4.27995 .119552 4.459278 .119552C4.817933 .119552 4.877709-.155417 4.985305-.585803L5.702615-3.443088C5.726526-3.53873 6.348194-5.033126 7.663263-5.033126C8.141469-5.033126 8.308842-4.674471 8.308842-4.196264C8.308842-3.526775 7.84259-2.223661 7.579577-1.506351C7.47198-1.219427 7.412204-1.06401 7.412204-.848817C7.412204-.310834 7.782814 .119552 8.356663 .119552C9.468493 .119552 9.886924-1.637858 9.886924-1.709589C9.886924-1.769365 9.839103-1.817186 9.767372-1.817186C9.659776-1.817186 9.647821-1.78132 9.588045-1.578082C9.313076-.621669 8.870735-.119552 8.392528-.119552C8.272976-.119552 8.081694-.131507 8.081694-.514072C8.081694-.824907 8.225156-1.207472 8.272976-1.338979C8.488169-1.912827 9.026152-3.323537 9.026152-4.016936C9.026152-4.734247 8.607721-5.272229 7.699128-5.272229C6.898132-5.272229 6.252553-4.817933 5.774346-4.112578C5.738481-4.758157 5.34396-5.272229 4.447323-5.272229C3.383313-5.272229 2.82142-4.519054 2.606227-4.220174C2.570361-4.901619 2.080199-5.272229 1.554172-5.272229C1.207472-5.272229 .932503-5.104857 .705355-4.65056C.490162-4.220174 .32279-3.490909 .32279-3.443088S.37061-3.335492 .454296-3.335492C.549938-3.335492 .561893-3.347447 .633624-3.622416C.812951-4.327771 1.0401-5.033126 1.518306-5.033126C1.793275-5.033126 1.888917-4.841843 1.888917-4.483188C1.888917-4.220174 1.769365-3.753923 1.685679-3.383313L1.350934-2.092154C1.303113-1.865006 1.171606-1.327024 1.111831-1.111831C1.028144-.800996 .896638-.239103 .896638-.179328C.896638-.011955 1.028144 .119552 1.207472 .119552C1.350934 .119552 1.518306 .047821 1.613948-.131507C1.637858-.191283 1.745455-.609714 1.80523-.848817L2.068244-1.924782L2.462765-3.502864Z" /><path id="formula1_slot_content__g1-50" d="M2.247572-1.625903C2.375093-1.745455 2.709838-2.008468 2.83736-2.12005C3.331507-2.574346 3.801743-3.012702 3.801743-3.737983C3.801743-4.686426 3.004732-5.300125 2.008468-5.300125C1.052055-5.300125 .422416-4.574844 .422416-3.865504C.422416-3.474969 .73325-3.419178 .844832-3.419178C1.012204-3.419178 1.259278-3.53873 1.259278-3.841594C1.259278-4.25604 .860772-4.25604 .765131-4.25604C.996264-4.837858 1.530262-5.037111 1.920797-5.037111C2.662017-5.037111 3.044583-4.407472 3.044583-3.737983C3.044583-2.909091 2.462765-2.303362 1.522291-1.338979L.518057-.302864C.422416-.215193 .422416-.199253 .422416 0H3.57061L3.801743-1.42665H3.55467C3.53076-1.267248 3.466999-.868742 3.371357-.71731C3.323537-.653549 2.717808-.653549 2.590286-.653549H1.171606L2.247572-1.625903Z" /><path id="formula2_slot_content__g0-97" d="M3.124284-3.036613C3.052553-3.172105 2.82142-3.514819 2.335243-3.514819C1.3868-3.514819 .342715-2.406974 .342715-1.227397C.342715-.398506 .876712 .079701 1.490411 .079701C2.000498 .079701 2.438854-.326775 2.582316-.486177C2.725778 .063761 3.267746 .079701 3.363387 .079701C3.730012 .079701 3.913325-.223163 3.977086-.358655C4.136488-.645579 4.24807-1.107846 4.24807-1.139726C4.24807-1.187547 4.216189-1.243337 4.120548-1.243337S4.008966-1.195517 3.961146-.996264C3.849564-.557908 3.698132-.143462 3.387298-.143462C3.203985-.143462 3.132254-.294894 3.132254-.518057C3.132254-.653549 3.203985-.924533 3.251806-1.123786S3.419178-1.801245 3.451059-1.944707L3.610461-2.550436C3.650311-2.741719 3.737983-3.076463 3.737983-3.116314C3.737983-3.299626 3.58655-3.363387 3.482939-3.363387C3.363387-3.363387 3.164134-3.283686 3.124284-3.036613ZM2.582316-.860772C2.183811-.310834 1.769365-.143462 1.514321-.143462C1.147696-.143462 .964384-.478207 .964384-.892653C.964384-1.267248 1.179577-2.12005 1.354919-2.470735C1.586052-2.956912 1.976588-3.291656 2.343213-3.291656C2.86127-3.291656 3.012702-2.709838 3.012702-2.614197C3.012702-2.582316 2.81345-1.801245 2.765629-1.594022C2.662017-1.219427 2.662017-1.203487 2.582316-.860772Z" /><path id="formula2_slot_content__g0-98" d="M1.944707-5.292154C1.952677-5.308095 1.976588-5.411706 1.976588-5.419676C1.976588-5.459527 1.944707-5.531258 1.849066-5.531258C1.817186-5.531258 1.570112-5.507347 1.3868-5.491407L.940473-5.459527C.765131-5.443587 .68543-5.435616 .68543-5.292154C.68543-5.180573 .797011-5.180573 .892653-5.180573C1.275218-5.180573 1.275218-5.132752 1.275218-5.061021C1.275218-5.0132 1.195517-4.694396 1.147696-4.511083L.454296-1.737484C.390535-1.466501 .390535-1.346949 .390535-1.211457C.390535-.390535 .892653 .079701 1.506351 .079701C2.486675 .079701 3.506849-1.052055 3.506849-2.207721C3.506849-2.996762 2.996762-3.514819 2.359153-3.514819C1.912827-3.514819 1.570112-3.227895 1.39477-3.076463L1.944707-5.292154ZM1.506351-.143462C1.219427-.143462 .932503-.366625 .932503-.948443C.932503-1.163636 .964384-1.362889 1.060025-1.745455C1.115816-1.976588 1.171606-2.199751 1.235367-2.430884C1.275218-2.574346 1.275218-2.590286 1.370859-2.709838C1.641843-3.044583 2.000498-3.291656 2.335243-3.291656C2.733748-3.291656 2.885181-2.901121 2.885181-2.542466C2.885181-2.247572 2.709838-1.39477 2.470735-.924533C2.263512-.494147 1.880946-.143462 1.506351-.143462Z" /><path id="formula2_slot_content__g0-99" d="M3.259776-3.052553C2.933001-3.012702 2.82939-2.765629 2.82939-2.606227C2.82939-2.375093 3.036613-2.311333 3.140224-2.311333C3.180075-2.311333 3.58655-2.343213 3.58655-2.82939S3.060523-3.514819 2.582316-3.514819C1.45056-3.514819 .350685-2.414944 .350685-1.299128C.350685-.541968 .868742 .079701 1.753425 .079701C3.012702 .079701 3.674222-.72528 3.674222-.828892C3.674222-.900623 3.594521-.956413 3.5467-.956413S3.474969-.932503 3.435118-.884682C2.805479-.143462 1.912827-.143462 1.769365-.143462C1.338979-.143462 .996264-.406476 .996264-1.012204C.996264-1.362889 1.155666-2.207721 1.530262-2.701868C1.880946-3.148194 2.279452-3.291656 2.590286-3.291656C2.685928-3.291656 3.052553-3.283686 3.259776-3.052553Z" /><path id="formula2_slot_content__g1-43" d="M3.474969-1.809215H5.818182C5.929763-1.809215 6.105106-1.809215 6.105106-1.992528S5.929763-2.175841 5.818182-2.175841H3.474969V-4.527024C3.474969-4.638605 3.474969-4.813948 3.291656-4.813948S3.108344-4.638605 3.108344-4.527024V-2.175841H.757161C.645579-2.175841 .470237-2.175841 .470237-1.992528S.645579-1.809215 .757161-1.809215H3.108344V.541968C3.108344 .653549 3.108344 .828892 3.291656 .828892S3.474969 .653549 3.474969 .541968V-1.809215Z" /></defs><rect width="100%" height="100%" fill="#f8f8f8" rx="40" ry="40" />
  <text x="60" y="140" font-size="72" font-family="Times, Georgia, serif" fill="#222">Carte - Prototype</text>

  
  <g id="formula1_slot_content" transform="translate(1673.26065773323,1787.0529749395487) scale(21.506396829272813)"><g id="page1">
<use x="-72.000004" y="-62.525265" xlink:href="#formula1_slot_content__g0-69" />
<use x="-59.312981" y="-62.525265" xlink:href="#formula1_slot_content__g2-61" />
<use x="-46.8875" y="-62.525265" xlink:href="#formula1_slot_content__g0-109" />
<use x="-36.648233" y="-62.525265" xlink:href="#formula1_slot_content__g0-99" />
<use x="-31.610244" y="-66.863702" xlink:href="#formula1_slot_content__g1-50" />
</g></g><g id="formula2_slot_content" transform="translate(1527.989823663188,2667.37073213193) scale(14.625312579700855)"><g id="page1">
<use x="-70.80449" y="-66.465203" xlink:href="#formula2_slot_content__g0-97" />
<use x="-66.306481" y="-66.465203" xlink:href="#formula2_slot_content__g1-43" />
<use x="-59.719974" y="-66.465203" xlink:href="#formula2_slot_content__g0-98" />
<rect x="-70.80449" y="-64.985963" height=".478187" width="14.707101" />
<use x="-65.28483" y="-57.635445" xlink:href="#formula2_slot_content__g0-99" />
</g></g><text x="60" y="1900" font-size="24" font-family="Times, Georgia, serif" fill="#666">Prototype — champs LaTeX injectés depuis CSV</text>
</svg>